name C:\Users\u0101727\Documents\MyRepositories\paper-ad\predictivesimulations_2d/Results/PredSim_2D/IK_c21.mot
datacolumns 11
datarows 30
range 0.63317646 0.91139036
endheader
time	pelvis_tilt	pelvis_tx	pelvis_ty	hip_flexion_l	hip_flexion_r	knee_angle_l	knee_angle_r	ankle_angle_l	ankle_angle_r	lumbar_extension	
          0.63317646	        -15.00591866	          0.85494850	          0.89996648	         25.64558418	         11.32654619	        -10.64754292	        -40.88776189	          8.49315976	         -0.30693074	         10.24535886	
          0.64277005	        -15.02301561	          0.86692028	          0.90140445	         24.72651089	         12.59965722	        -10.39992811	        -41.78439029	          8.59626137	          0.66908496	         10.20696061	
          0.65236363	        -15.03763882	          0.87883620	          0.90259876	         23.79214604	         13.90518639	        -10.12744649	        -42.57308094	          8.74025939	          1.72507891	         10.16458405	
          0.66195721	        -15.04977028	          0.89070386	          0.90355268	         22.84694927	         15.23815924	         -9.83795343	        -43.24567760	          8.91929450	          2.84338079	         10.11854202	
          0.67155079	        -15.05953081	          0.90253057	          0.90427676	         21.89483278	         16.59261274	         -9.53852066	        -43.79468699	          9.12691052	          4.00617746	         10.06930685	
          0.68114438	        -15.06708541	          0.91432262	          0.90478787	         20.93992940	         17.96268111	         -9.23667389	        -44.21244295	          9.35544130	          5.19561950	         10.01731590	
          0.69073796	        -15.07257429	          0.92608555	          0.90510672	         19.98682216	         19.34290534	         -8.94026144	        -44.49111791	          9.59681020	          6.39388778	          9.96290664	
          0.70033154	        -15.07614224	          0.93782538	          0.90525465	         19.04030996	         20.72676545	         -8.65768417	        -44.62379338	          9.84303873	          7.58318267	          9.90646237	
          0.70992512	        -15.07800645	          0.94954915	          0.90525191	         18.10367721	         22.10737758	         -8.39461441	        -44.60479138	         10.08675855	          8.74583166	          9.84850834	
          0.71951871	        -15.07848257	          0.96126526	          0.90511655	         17.17773951	         23.47779667	         -8.15239479	        -44.43011262	         10.32129512	          9.86445965	          9.78979302	
          0.72911229	        -15.07785354	          0.97298245	          0.90486414	         16.26388338	         24.83020691	         -7.93375176	        -44.09766417	         10.53984148	         10.92232965	          9.73104696	
          0.73870587	        -15.07636335	          0.98470894	          0.90450780	         15.36427621	         26.15662571	         -7.74230600	        -43.60651205	         10.73628099	         11.90399405	          9.67289113	
          0.74829946	        -15.07425303	          0.99645387	          0.90405826	         14.48048423	         27.44819077	         -7.58111350	        -42.95979615	         10.90594461	         12.79604676	          9.61606769	
          0.75789304	        -15.07177951	          1.00822568	          0.90352472	         13.61345394	         28.69691775	         -7.45221596	        -42.16203878	         11.04584715	         13.58825459	          9.56126488	
          0.76748662	        -15.06920600	          1.02003101	          0.90291532	         12.76404829	         29.89658672	         -7.35671548	        -41.21761630	         11.15482676	         14.27452938	          9.50897292	
          0.77708020	        -15.06677096	          1.03187614	          0.90223669	         11.93296660	         31.04153889	         -7.29624295	        -40.13318623	         11.23359407	         14.85327414	          9.45962929	
          0.78667379	        -15.06469548	          1.04376545	          0.90149425	         11.12053106	         32.12881098	         -7.27171034	        -38.91424984	         11.28495237	         15.32731464	          9.41342515	
          0.79626737	        -15.06319109	          1.05570253	          0.90069186	         10.32662697	         33.15703866	         -7.28351278	        -37.56580958	         11.31335649	         15.70292992	          9.37042671	
          0.80586095	        -15.06247662	          1.06769074	          0.89983153	          9.55100102	         34.12563198	         -7.33165675	        -36.09324366	         11.32412896	         15.98848841	          9.33061230	
          0.81545453	        -15.06283391	          1.07973457	          0.89891345	          8.79304573	         35.03310752	         -7.41557861	        -34.50403615	         11.32254480	         16.19313458	          9.29405434	
          0.82504812	        -15.06465521	          1.09184049	          0.89793652	          8.05172035	         35.87597534	         -7.53422477	        -32.80585928	         11.31221589	         16.32598780	          9.26106125	
          0.83464170	        -15.06826517	          1.10401659	          0.89689959	          7.32666489	         36.64965514	         -7.68785494	        -31.01019298	         11.29398143	         16.39583014	          9.23201823	
          0.84423528	        -15.07373524	          1.11627483	          0.89580529	          6.61876455	         37.34743870	         -7.88010453	        -29.14329242	         11.26625670	         16.41080464	          9.20751362	
          0.85382887	        -15.08109678	          1.12863345	          0.89466598	          5.93004897	         37.95632753	         -8.11720931	        -27.23938537	         11.22302607	         16.37819668	          9.18885236	
          0.86342245	        -15.09037409	          1.14111391	          0.89350332	          5.26367012	         38.46052192	         -8.40628118	        -25.33067425	         11.15189006	         16.30440167	          9.17775476	
          0.87301603	        -15.10124894	          1.15373498	          0.89233987	          4.62404312	         38.85059537	         -8.75580285	        -23.44499406	         11.03656689	         16.19481011	          9.17540619	
          0.88260961	        -15.11292560	          1.16651123	          0.89119360	          4.01641111	         39.12643760	         -9.17559966	        -21.60421957	         10.86053584	         16.05354907	          9.18221215	
          0.89220320	        -15.12419147	          1.17945551	          0.89007881	          3.44605381	         39.29496346	         -9.67597447	        -19.82992725	         10.60951888	         15.88322123	          9.19809809	
          0.90179678	        -15.13382447	          1.19258167	          0.88900767	          2.91787500	         39.36338984	        -10.26664114	        -18.13688616	         10.27065549	         15.68502333	          9.22315299	
          0.91139036	        -15.14068056	          1.20590417	          0.88798937	          2.43630473	         39.33854567	        -10.95616151	        -16.53687361	          9.83179137	         15.45885204	          9.25761527	
